HIERARCHY
ROOT Hips
{
	OFFSET 0.000000 0.000000 0.000000
	CHANNELS 6 Xposition Yposition Zposition Zrotation Yrotation Xrotation 
	JOINT LHipJoint
	{
		OFFSET 0.000000 0.000000 0.000000
		CHANNELS 3 Zrotation Yrotation Xrotation
		JOINT LeftUpLeg
		{
			OFFSET 1.363060 -1.794630 0.839290
			CHANNELS 3 Zrotation Yrotation Xrotation
			JOINT LeftLeg
			{
				OFFSET 2.448110 -6.726130 0.000000
				CHANNELS 3 Zrotation Yrotation Xrotation
				JOINT LeftFoot
				{
					OFFSET 2.562200 -7.039590 0.000000
					CHANNELS 3 Zrotation Yrotation Xrotation
					JOINT LeftToeBase
					{
						OFFSET 0.157640 -0.433110 2.322550
						CHANNELS 3 Zrotation Yrotation Xrotation
						End Site
						{
							OFFSET 0.000000 0.000000 0.000000
						}
					}
				}
			}
		}
	}
	JOINT RHipJoint
	{
		OFFSET 0.000000 0.000000 0.000000
		CHANNELS 3 Zrotation Yrotation Xrotation
		JOINT RightUpLeg
		{
			OFFSET -1.305520 -1.794630 0.839290
			CHANNELS 3 Zrotation Yrotation Xrotation
			JOINT RightLeg
			{
				OFFSET -2.542530 -6.985550 0.000000
				CHANNELS 3 Zrotation Yrotation Xrotation
				JOINT RightFoot
				{
					OFFSET -2.568260 -7.056230 0.000000
					CHANNELS 3 Zrotation Yrotation Xrotation
					JOINT RightToeBase
					{
						OFFSET -0.164730 -0.452590 2.363150
						CHANNELS 3 Zrotation Yrotation Xrotation
						End Site
						{
							OFFSET 0.000000 0.000000 0.000000
						}
					}
				}
			}
		}
	}
	JOINT LowerBack
	{
		OFFSET 0.000000 0.000000 0.000000
		CHANNELS 3 Zrotation Yrotation Xrotation
		JOINT Spine
		{
			OFFSET 0.028270 2.035590 -0.193380
			CHANNELS 3 Zrotation Yrotation Xrotation
			JOINT Spine1
			{
				OFFSET 0.056720 2.048850 -0.042750
				CHANNELS 3 Zrotation Yrotation Xrotation
				JOINT Neck
				{
					OFFSET 0.000000 0.000000 0.000000
					CHANNELS 3 Zrotation Yrotation Xrotation
					JOINT Neck1
					{
						OFFSET -0.054170 1.746240 0.172020
						CHANNELS 3 Zrotation Yrotation Xrotation
						JOINT Head
						{
							OFFSET 0.104070 1.761360 -0.123970
							CHANNELS 3 Zrotation Yrotation Xrotation
							End Site
							{
								OFFSET 0.000000 0.000000 0.000000
							}
						}
					}
				}
				JOINT LeftShoulder
				{
					OFFSET 0.000000 0.000000 0.000000
					CHANNELS 3 Zrotation Yrotation Xrotation
					JOINT LeftArm
					{
						OFFSET 3.362410 1.200890 -0.311210
						CHANNELS 3 Zrotation Yrotation Xrotation
						JOINT LeftForeArm
						{
							OFFSET 4.983000 -0.000000 -0.000000
							CHANNELS 3 Zrotation Yrotation Xrotation
							JOINT LeftHand
							{
								OFFSET 3.483560 -0.000000 -0.000000
								CHANNELS 3 Zrotation Yrotation Xrotation
								JOINT LeftFingerBase
								{
									OFFSET 0.000000 0.000000 0.000000
									CHANNELS 3 Zrotation Yrotation Xrotation
									JOINT LeftHandIndex1
									{
										OFFSET 0.715260 -0.000000 -0.000000
										CHANNELS 3 Zrotation Yrotation Xrotation
										End Site
										{
											OFFSET 0.000000 0.000000 0.000000
										}
									}
								}
								JOINT LThumb
								{
									OFFSET 0.000000 0.000000 0.000000
									CHANNELS 3 Zrotation Yrotation Xrotation
									End Site
									{
										OFFSET 0.000000 0.000000 0.000000
									}
								}
							}
						}
					}
				}
				JOINT RightShoulder
				{
					OFFSET 0.000000 0.000000 0.000000
					CHANNELS 3 Zrotation Yrotation Xrotation
					JOINT RightArm
					{
						OFFSET -3.136600 1.374050 -0.404650
						CHANNELS 3 Zrotation Yrotation Xrotation
						JOINT RightForeArm
						{
							OFFSET -5.241900 -0.000000 -0.000000
							CHANNELS 3 Zrotation Yrotation Xrotation
							JOINT RightHand
							{
								OFFSET -3.444170 -0.000000 -0.000000
								CHANNELS 3 Zrotation Yrotation Xrotation
								JOINT RightFingerBase
								{
									OFFSET 0.000000 0.000000 0.000000
									CHANNELS 3 Zrotation Yrotation Xrotation
									JOINT RightHandIndex1
									{
										OFFSET -0.622530 -0.000000 -0.000000
										CHANNELS 3 Zrotation Yrotation Xrotation
										End Site
										{
											OFFSET 0.000000 0.000000 0.000000
										}
									}
								}
								JOINT RThumb
								{
									OFFSET 0.000000 0.000000 0.000000
									CHANNELS 3 Zrotation Yrotation Xrotation
									End Site
									{
										OFFSET 0.000000 0.000000 0.000000
									}
								}
							}
						}
					}
				}
			}
		}
	}
}
MOTION
Frames: 5
Frame Time: 0.008333
-21.211282 16.251396 -2.701695 -172.482315 87.526662 -168.343077 -11.087578 6.029301 1.052215 0.638116 10.089687 19.690204 -0.884999 1.056858 10.433990 0.752096 5.047309 5.764548 1.098800 0.000000 -80.626800 9.060383 0.017739 1.775828 10.897705 -7.508313 -43.229579 1.748058 -2.015711 33.387189 -1.887168 -7.874743 -5.249364 -0.990800 -0.000000 -25.166000 6.867547 -5.802860 -4.926217 1.365869 -6.423913 -3.361457 -4.882524 -6.398972 2.540459 9.457799 -21.400600 -11.400355 -1.949208 -0.097100 -0.932042 0.000000 0.000000 0.000000 0.732405 8.190020 0.945818 -48.066250 -22.034711 14.358602 -2.016090 -54.123106 0.011072 -2.075494 0.784110 -0.007858 -0.065851 0.245524 -0.000000 0.000000 0.000000 0.000000 0.000000 0.000000 0.000000 12.767217 -20.870336 1.183880 75.077353 -24.719254 -15.763726 4.990324 15.909076 -0.004615 7.806975 -0.606471 -0.042690 0.098101 0.026456 -0.000000 0.000000 0.000000 0.000000 0.000000 0.000000 0.000000 
-21.024886 16.266170 -2.660959 -170.931500 87.458809 -166.854355 -11.151267 6.160133 1.171403 1.127608 9.780285 19.655345 -0.765243 1.187106 11.157088 0.748250 4.739298 7.776381 1.153700 -0.000000 -82.684100 9.037467 -0.029930 1.750381 11.033447 -7.447841 -42.980237 1.688930 -2.077890 34.501138 -1.922200 -7.924816 -5.961943 -0.859500 -0.000000 -23.716900 7.015582 -5.769488 -5.086268 1.395372 -6.406818 -3.398192 -4.865375 -6.381584 2.533806 9.442404 -21.333377 -11.367850 -1.955532 -0.098606 -0.921353 0.000000 0.000000 0.000000 0.695182 8.233118 0.974909 -47.698124 -21.130021 13.784646 -2.041254 -53.654342 0.010562 -1.987494 0.728101 -0.006651 -0.069158 0.240614 -0.000000 0.000000 0.000000 0.000000 0.000000 0.000000 0.000000 12.759404 -20.773294 1.112842 74.220946 -24.277204 -16.290161 4.986470 15.604151 -0.003818 7.425899 -0.470952 -0.031574 0.101216 0.023492 -0.000000 0.000000 0.000000 0.000000 0.000000 0.000000 0.000000 
-20.838263 16.283726 -2.618890 -169.105254 87.413534 -165.081086 -11.233639 6.287052 1.292123 1.618649 9.435087 19.517644 -0.635870 1.319968 12.019236 0.760300 4.388871 9.890073 1.168700 0.000001 -84.372800 8.996841 -0.081433 1.735009 11.192904 -7.292580 -42.632031 1.646047 -2.120680 35.505674 -1.953455 -7.917840 -6.830240 -0.696800 -0.000000 -21.888900 7.155736 -5.732997 -5.250900 1.422556 -6.386138 -3.435192 -4.848829 -6.360322 2.530426 9.432827 -21.263047 -11.330447 -1.960802 -0.100105 -0.909331 0.000000 0.000000 0.000000 0.663847 8.285295 1.004647 -47.343618 -20.163954 13.200682 -2.070894 -53.116172 0.010031 -1.896783 0.671712 -0.005445 -0.072754 0.234924 -0.000000 0.000000 0.000000 0.000000 0.000000 0.000000 0.000000 12.752237 -20.671254 1.038901 73.361580 -23.786722 -16.764903 4.980035 15.352506 -0.003036 7.073109 -0.326934 -0.021157 0.104019 0.020528 -0.000000 0.000000 0.000000 0.000000 0.000000 0.000000 0.000000 
-20.652423 16.303840 -2.575400 -167.190046 87.373802 -163.210541 -11.329801 6.403338 1.413443 2.100151 9.056616 19.268140 -0.497408 1.451360 13.037246 0.790932 4.000119 12.090162 1.138000 0.000000 -85.549300 8.942380 -0.138200 1.728314 11.368955 -7.061904 -42.183322 1.618139 -2.146191 36.387110 -1.985074 -7.877833 -7.817697 -0.511900 -0.000000 -19.723301 7.276716 -5.695920 -5.416944 1.445145 -6.363519 -3.471446 -4.834202 -6.336889 2.529802 9.434017 -21.195537 -11.290101 -1.965990 -0.101637 -0.896504 0.000000 0.000000 0.000000 0.645630 8.337158 1.035502 -46.998561 -19.147503 12.614004 -2.104738 -52.505945 0.009489 -1.805133 0.616443 -0.004340 -0.076609 0.228455 -0.000000 0.000000 0.000000 0.000000 0.000000 0.000000 0.000000 12.758312 -20.571139 0.962802 72.504664 -23.259459 -17.146963 4.968964 15.190286 -0.002299 6.743140 -0.184893 -0.011639 0.106444 0.017685 -0.000000 0.000000 0.000000 0.000000 0.000000 0.000000 0.000000 
-20.467525 16.326255 -2.530768 -165.244380 87.328716 -161.306762 -11.440141 6.505074 1.533170 2.578585 8.660379 18.896634 -0.351454 1.578024 14.230723 0.840728 3.555236 14.366067 1.049400 -0.000001 -86.029400 8.874919 -0.200308 1.726251 11.563610 -6.777471 -41.628993 1.604257 -2.155178 37.133413 -2.021375 -7.829440 -8.894917 -0.311799 -0.000000 -17.145600 7.380216 -5.661740 -5.578342 1.463912 -6.342375 -3.505100 -4.821410 -6.314821 2.534952 9.441735 -21.123782 -11.249015 -1.969321 -0.102990 -0.883605 0.000000 0.000000 0.000000 0.632261 8.405698 1.069914 -46.653673 -18.117888 12.037068 -2.143871 -51.809543 0.008933 -1.711507 0.565794 -0.003338 -0.080790 0.221305 0.000000 0.000000 0.000000 0.000000 0.000000 0.000000 0.000000 12.763915 -20.469137 0.885897 71.671283 -22.666149 -17.555645 4.957394 15.040876 -0.001490 6.457444 -0.003706 -0.000920 0.108544 0.014592 -0.000000 0.000000 0.000000 0.000000 0.000000 0.000000 0.000000 
